<?xml version="1.0" standalone="no"?>
<!DOCTYPE svg PUBLIC "-//W3C//DTD SVG 20010904//EN"
 "http://www.w3.org/TR/2001/REC-SVG-20010904/DTD/svg10.dtd">
<svg version="1.0" xmlns="http://www.w3.org/2000/svg"
 width="404.000000pt" height="352.000000pt" viewBox="0 0 404.000000 352.000000"
 preserveAspectRatio="xMidYMid meet">

<g transform="translate(0.000000,352.000000) scale(0.100000,-0.100000)"
fill="#000000" stroke="none">
<path d="M2208 3219 c-37 -58 -41 -59 -168 -59 -91 0 -122 -3 -133 -15 -8 -8
-20 -46 -27 -84 l-11 -69 -57 -17 c-31 -9 -62 -19 -69 -21 -6 -3 -30 20 -53
50 -31 43 -47 56 -67 56 -14 0 -75 -27 -135 -61 -124 -70 -123 -69 -87 -178
l21 -63 -43 -44 c-24 -24 -47 -44 -52 -44 -5 0 -32 11 -60 25 -81 41 -90 36
-169 -90 -55 -87 -68 -116 -64 -137 l6 -28 -175 0 c-166 0 -175 -1 -199 -22
-26 -25 -176 -298 -176 -322 0 -8 12 -24 27 -36 26 -21 35 -21 323 -19 308 2
328 -1 350 -41 23 -43 4 -110 -37 -129 -16 -7 -121 -11 -309 -11 l-285 0 -24
-25 -25 -24 0 -279 c0 -252 2 -282 18 -301 16 -19 28 -21 170 -22 198 -2 190
-9 194 155 l3 121 73 3 72 3 42 -87 c33 -69 39 -89 28 -92 -23 -8 -119 -114
-126 -139 -4 -15 11 -55 46 -125 68 -135 65 -131 122 -125 26 4 48 4 48 1 0
-2 -22 -48 -49 -102 -27 -53 -72 -151 -101 -217 -29 -66 -70 -160 -92 -210
-63 -140 -64 -147 -22 -100 48 53 214 252 289 345 33 41 62 77 65 80 6 5 100
126 112 144 5 7 13 6 24 -5 15 -15 14 -24 -11 -113 -25 -87 -26 -98 -13 -118
21 -31 226 -140 258 -136 23 3 44 28 111 128 l14 22 77 -23 77 -23 11 -70 c20
-125 13 -121 175 -123 77 -2 146 1 154 6 9 6 21 48 31 102 l16 92 69 24 c39
13 75 21 82 19 6 -3 30 -31 52 -64 22 -33 49 -62 60 -65 14 -3 53 16 123 60
57 36 111 72 121 81 23 21 22 48 -8 130 -14 38 -25 76 -25 84 0 7 20 34 45 58
l44 43 78 -21 c69 -19 80 -20 100 -7 31 21 133 198 133 232 -1 20 -17 46 -60
92 l-60 63 0 84 c0 46 3 84 8 84 4 0 14 -11 22 -24 23 -36 159 -204 206 -253
l41 -43 201 0 c129 0 210 4 226 11 27 13 43 59 29 82 -4 7 -109 132 -233 276
-124 145 -226 266 -228 270 -2 7 35 49 223 256 236 259 259 289 237 321 -19
29 -56 34 -249 34 -164 0 -202 -3 -221 -16 -12 -8 -68 -72 -125 -141 -56 -69
-110 -135 -119 -147 -17 -20 -18 -17 -18 84 l1 105 44 59 c25 33 45 68 45 78
0 18 -132 224 -155 241 -14 10 -49 4 -122 -24 l-61 -23 -52 52 -52 53 26 74
c42 118 47 109 -117 204 -129 76 -139 76 -193 -9 -22 -33 -43 -60 -48 -60 -5
0 -45 9 -88 21 l-77 21 -3 121 c-3 118 -4 120 -20 96z m-88 -115 c0 -3 -13
-22 -28 -42 -59 -77 -139 -188 -161 -225 -14 -23 -33 -39 -49 -43 -199 -42
-392 -171 -506 -337 -22 -32 -43 -57 -48 -57 -11 0 -10 2 7 43 8 20 15 41 15
47 0 15 -26 12 -40 -5 -7 -8 -18 -15 -24 -15 -6 0 -5 4 3 9 10 6 10 10 1 16
-8 5 -1 13 19 23 24 11 29 18 20 26 -8 8 -13 8 -16 -1 -7 -18 -33 -16 -33 2 0
8 5 15 11 15 17 0 0 19 -31 35 -30 15 -64 11 -57 -8 2 -6 -8 -22 -21 -36 -14
-14 -31 -36 -40 -49 -13 -20 -13 -24 3 -42 10 -11 16 -22 14 -25 -7 -6 -69 33
-69 43 0 5 25 48 56 95 l56 86 70 -35 70 -35 73 68 c40 37 73 75 73 83 1 8
-12 47 -28 85 -15 39 -25 74 -20 78 4 5 46 30 93 56 l85 48 47 -64 c34 -47 51
-63 63 -60 9 3 51 17 92 31 41 15 80 26 87 26 7 0 13 7 13 16 0 8 7 46 16 85
l16 69 84 0 c46 0 84 -3 84 -6z m-15 -166 c-20 -51 -49 -124 -65 -163 -16 -38
-38 -95 -49 -125 -17 -51 -158 -406 -195 -492 -9 -21 -13 -39 -9 -39 5 -1 13
-2 18 -4 6 -1 60 -3 122 -3 l112 -2 -92 -132 c-51 -73 -127 -180 -169 -238
-42 -57 -74 -108 -72 -112 3 -5 59 -6 125 -3 65 3 119 3 119 0 0 -4 -11 -19
-25 -33 -34 -38 -284 -344 -459 -563 -152 -190 -284 -352 -323 -398 l-23 -26
12 35 c6 19 91 194 190 388 98 194 178 358 178 363 0 5 -49 9 -112 9 l-111 0
20 23 c30 32 295 438 301 461 5 17 -2 18 -122 15 -74 -3 -126 0 -126 5 0 6 9
19 19 30 24 27 311 437 496 711 241 356 268 395 273 391 2 -3 -13 -46 -33 -98z
m463 69 c20 -13 63 -39 95 -58 31 -18 57 -39 57 -46 0 -7 -11 -42 -25 -79 -14
-36 -25 -74 -25 -83 0 -9 35 -51 78 -94 l78 -78 79 36 c43 20 81 32 85 28 22
-26 120 -174 120 -181 0 -5 -11 -18 -23 -31 -22 -19 -25 -20 -37 -6 -11 13
-35 16 -137 14 -118 -1 -124 0 -143 22 -10 13 -19 19 -20 12 0 -6 5 -15 10
-18 16 -10 1 -25 -25 -25 -13 0 -27 -4 -30 -10 -3 -5 -36 22 -73 62 -129 136
-290 221 -477 250 -50 8 -72 15 -66 22 4 6 11 23 15 39 4 16 14 27 24 28 15 1
15 2 -1 6 -22 6 -19 20 17 116 23 60 24 61 34 36 8 -21 19 -28 54 -33 24 -4
73 -15 109 -26 35 -11 69 -20 74 -20 6 0 26 24 45 53 36 55 61 87 67 87 2 0
20 -11 41 -23z m-368 -361 c68 -17 125 -38 177 -65 67 -34 199 -138 249 -197
39 -46 48 -63 50 -100 2 -24 0 -44 -3 -44 -3 0 -22 18 -40 40 -45 52 -110 96
-186 126 -57 23 -73 24 -264 24 -112 0 -203 4 -203 9 0 13 27 87 57 159 26 62
26 62 67 62 23 -1 66 -7 96 -14z m-944 -60 c10 -8 16 -17 13 -20 -3 -4 -17 2
-30 13 -27 23 -13 28 17 7z m403 -133 c-45 -65 -95 -139 -113 -165 -17 -26
-33 -47 -36 -47 -3 0 -16 14 -29 31 l-24 30 19 36 c30 56 100 128 177 182 39
27 75 50 79 50 5 0 -28 -53 -73 -117z m-329 17 c0 -5 -5 -10 -11 -10 -5 0 -7
5 -4 10 3 6 8 10 11 10 2 0 4 -4 4 -10z m-30 -132 c53 -25 134 -99 160 -147
10 -20 9 -26 -13 -50 -21 -22 -118 -155 -169 -231 -16 -25 -16 -24 -16 33 -1
69 -23 112 -72 142 -33 19 -54 20 -330 23 -184 1 -294 6 -293 12 3 9 54 102
119 218 l19 33 270 -3 c266 -4 271 -4 325 -30z m1160 -4 c93 -44 163 -123 191
-216 18 -57 21 -87 17 -162 -7 -137 -51 -222 -149 -293 -27 -19 -49 -39 -49
-45 0 -5 24 -49 53 -96 75 -122 147 -249 147 -262 0 -6 -50 -10 -138 -10
l-138 0 -17 33 c-47 93 -122 226 -143 255 l-25 32 -110 0 c-62 0 -109 4 -109
10 0 14 57 21 150 18 l85 -3 47 -72 c26 -39 67 -107 89 -150 23 -43 47 -81 53
-85 10 -7 216 -12 216 -5 0 4 -120 209 -164 280 -20 32 -36 62 -36 68 0 5 13
17 28 27 65 40 111 89 131 140 26 66 26 75 1 37 -11 -16 -20 -24 -20 -16 0 8
-3 11 -7 8 -3 -4 -12 -2 -20 4 -7 7 -31 12 -53 13 -26 0 -40 5 -40 14 0 7 -14
-3 -32 -23 -64 -74 -87 -80 -321 -83 -115 -1 -213 1 -218 4 -6 4 -6 11 1 18 8
10 53 12 187 10 192 -4 238 3 292 43 85 65 80 211 -8 270 -30 20 -47 23 -131
23 -53 0 -99 3 -103 6 -3 4 0 13 8 21 8 8 15 19 15 24 0 5 -57 9 -130 9 -115
0 -150 7 -122 23 4 3 18 42 32 87 l25 81 225 -3 225 -3 65 -31z m558 -193 c2
-214 3 -224 19 -200 9 13 91 115 181 227 l164 202 180 0 c107 0 178 -4 176 -9
-1 -5 -86 -103 -188 -217 -102 -113 -209 -233 -238 -266 l-52 -60 68 -76 c37
-43 122 -140 187 -217 65 -77 143 -168 173 -203 30 -35 53 -65 50 -67 -9 -9
-371 -6 -377 3 -14 20 -168 216 -194 245 -15 18 -53 65 -85 105 l-57 72 -3
-215 -2 -215 -140 0 -140 0 0 560 0 561 138 -3 137 -3 3 -224z m-694 -102 c22
-17 26 -28 26 -74 0 -61 -17 -87 -69 -104 -35 -11 -341 -16 -341 -5 0 3 32 51
72 105 l71 99 107 0 c93 0 111 -3 134 -21z m-955 -206 c57 -1 105 -3 106 -5 8
-8 -81 -142 -121 -182 -28 -29 -44 -52 -40 -61 6 -18 -2 -45 -15 -45 -10 0
-41 58 -37 70 2 4 26 26 54 48 29 22 58 54 65 71 7 16 16 28 20 25 4 -2 11 9
17 24 l10 29 -81 0 c-67 1 -88 -4 -131 -25 l-51 -26 -275 0 -275 -1 0 -225 0
-225 87 -2 87 -3 3 143 3 142 131 3 c72 1 142 -2 156 -7 17 -6 36 -33 64 -92
21 -45 53 -109 69 -142 l30 -60 65 1 c59 0 65 2 68 21 2 11 8 21 13 21 8 0 6
-28 -7 -67 -2 -9 -27 -13 -78 -13 l-76 0 -72 148 -73 147 -127 3 -128 3 -2
-98 c-1 -54 -2 -116 -2 -138 l-1 -40 -122 -3 -123 -3 0 261 0 260 285 0 c298
0 320 3 355 45 8 10 19 13 29 8 9 -4 63 -9 120 -10z m1309 -263 c0 -88 -2
-160 -6 -160 -4 0 -20 22 -36 48 -16 26 -43 68 -59 94 l-30 48 51 45 c28 25
54 55 57 65 16 49 22 8 23 -140z m-742 -162 c-4 -57 -9 -115 -12 -130 l-6 -28
-95 0 c-71 0 -94 3 -91 13 3 7 35 15 80 21 74 8 76 9 82 38 3 17 6 53 6 80 0
44 21 108 36 108 4 0 3 -46 0 -102z m297 5 c30 -54 64 -117 76 -141 40 -79 47
-82 171 -82 61 0 110 -3 109 -7 -1 -20 -122 -109 -194 -143 -107 -52 -181 -70
-291 -70 -150 0 -322 62 -434 156 -29 25 -30 27 -14 45 15 17 33 19 151 19
171 0 176 4 187 130 3 47 9 106 12 132 7 52 9 53 120 56 l52 2 55 -97z m-1083
-166 c1 -7 9 -22 19 -34 16 -19 30 -22 90 -24 39 -1 71 -4 71 -6 0 -2 -18 -42
-40 -89 -43 -89 -51 -96 -125 -108 l-40 -6 -45 90 -44 89 49 54 c48 51 65 60
65 34z m1989 -67 c1 -22 -89 -171 -107 -178 -9 -3 -44 4 -78 16 -35 12 -68 22
-75 22 -7 0 -44 -34 -83 -75 l-72 -76 33 -91 c19 -51 32 -96 30 -101 -3 -9
-175 -117 -186 -117 -3 0 -18 19 -34 43 -15 23 -38 55 -51 71 l-24 29 -84 -26
c-46 -15 -95 -29 -110 -33 -20 -4 -28 -12 -28 -28 0 -11 -5 -56 -12 -98 l-11
-78 -114 0 c-129 0 -114 -13 -136 119 l-12 75 -65 12 c-36 7 -83 19 -104 28
-21 9 -42 16 -46 16 -4 0 -31 -36 -60 -80 -29 -44 -57 -80 -62 -80 -8 0 -180
92 -195 104 -1 1 9 40 22 86 32 110 31 133 -1 159 l-26 21 63 72 c34 40 69 79
76 87 11 13 16 12 35 -6 44 -40 157 -100 240 -128 119 -40 286 -46 413 -16
151 36 259 97 366 204 l64 65 53 -6 c29 -2 54 -8 56 -11 9 -14 -78 -114 -157
-182 -130 -112 -305 -189 -482 -213 -16 -2 4 -1 45 1 41 3 83 6 93 6 9 1 17 5
17 9 0 4 8 6 18 6 9 0 26 3 37 8 18 7 18 6 6 -9 -12 -15 -11 -17 3 -17 9 0 16
-4 16 -10 0 -5 -7 -10 -16 -10 -8 0 -12 -4 -9 -10 4 -6 13 -5 25 2 15 10 22
10 32 0 9 -9 7 -12 -9 -12 -12 0 -24 -4 -27 -9 -3 -5 15 -4 40 1 53 12 59 8
118 -73 l41 -55 45 28 c25 15 59 35 75 44 17 9 32 18 33 20 2 1 -11 46 -29 98
l-33 95 62 63 c34 35 70 74 81 88 l19 25 83 -22 c46 -12 87 -19 91 -15 3 4 22
35 42 70 32 57 38 92 15 92 -5 0 -9 9 -9 21 0 20 0 20 29 -3 17 -13 30 -30 30
-38z"/>
<path d="M1387 2583 c-4 -3 -7 -11 -7 -17 0 -6 5 -5 12 2 6 6 9 14 7 17 -3 3
-9 2 -12 -2z"/>
<path d="M1365 2509 c-4 -6 -5 -12 -2 -15 2 -3 7 2 10 11 7 17 1 20 -8 4z"/>
<path d="M1613 1646 c1 -6 -4 -10 -11 -8 -10 2 -11 -4 -7 -19 6 -19 4 -21 -11
-15 -16 6 -17 5 -6 -6 11 -11 16 -10 26 5 7 9 18 17 24 17 19 0 21 28 2 33
-11 3 -18 0 -17 -7z"/>
<path d="M1510 1520 c-8 -5 -28 -15 -44 -22 -37 -16 -45 -36 -14 -36 13 1 43
-2 68 -5 25 -3 53 -6 63 -6 10 -1 16 -5 13 -10 -8 -13 31 -20 43 -8 6 6 14 7
18 3 4 -4 1 -11 -7 -16 -8 -5 -11 -12 -7 -16 3 -4 13 -1 21 5 16 13 32 -1 21
-19 -3 -5 -1 -10 6 -10 11 0 10 14 -6 55 -7 18 -6 17 13 -3 11 -13 23 -19 26
-13 3 5 0 12 -6 14 -8 4 -4 8 10 12 12 4 22 14 22 21 0 17 -17 19 -22 2 -2 -6
-10 -8 -16 -4 -17 10 -15 26 3 26 8 0 15 5 15 11 0 6 -6 9 -14 6 -7 -3 -18 -1
-23 4 -6 6 -14 4 -23 -6 -14 -17 -46 -20 -55 -5 -4 6 -11 8 -16 5 -5 -4 -9 0
-9 8 0 17 -34 12 -59 -7 -12 -9 -13 -8 -8 7 3 9 5 17 4 16 -1 0 -9 -4 -17 -9z
m63 -47 c-13 -2 -35 -2 -50 0 -16 2 -5 4 22 4 28 0 40 -2 28 -4z"/>
<path d="M1648 1349 c-10 -10 -18 -23 -18 -27 0 -5 -12 -15 -26 -22 -20 -11
-29 -12 -44 -2 -27 16 -33 15 -26 -4 9 -23 -14 -50 -27 -32 -6 10 -8 9 -4 -4
3 -9 -1 -19 -9 -22 -8 -3 -14 -11 -14 -18 0 -10 2 -10 9 1 5 8 14 10 21 6 9
-6 6 -11 -10 -20 -22 -12 -22 -12 8 -11 16 0 28 3 26 5 -2 2 4 10 14 18 15 11
15 12 1 7 -10 -3 -20 -1 -24 5 -3 6 -1 11 4 11 6 0 11 6 11 14 0 18 31 29 56
20 10 -4 16 -4 13 0 -3 3 11 24 32 46 22 22 39 42 39 45 0 10 -16 3 -32 -16z"/>
<path d="M1560 1250 c0 -5 4 -10 9 -10 6 0 13 5 16 10 3 6 -1 10 -9 10 -9 0
-16 -4 -16 -10z"/>
<path d="M1500 1170 c0 -5 4 -10 9 -10 6 0 13 5 16 10 3 6 -1 10 -9 10 -9 0
-16 -4 -16 -10z"/>
<path d="M1431 1134 c0 -11 3 -14 6 -6 3 7 2 16 -1 19 -3 4 -6 -2 -5 -13z"/>
<path d="M1455 1109 c-11 -16 -1 -19 13 -3 7 8 8 14 3 14 -5 0 -13 -5 -16 -11z"/>
<path d="M1355 992 c-5 -4 -18 -22 -28 -39 -14 -25 -15 -31 -4 -27 12 4 23 20
45 67 4 9 0 9 -13 -1z"/>
<path d="M2163 2803 c9 -2 25 -2 35 0 9 3 1 5 -18 5 -19 0 -27 -2 -17 -5z"/>
<path d="M2240 2790 c34 -11 60 -11 35 0 -11 5 -29 8 -40 8 -16 0 -15 -2 5 -8z"/>
<path d="M3470 1483 c13 -18 26 -30 29 -28 3 3 -8 18 -23 33 l-29 27 23 -32z"/>
<path d="M2781 1454 c0 -11 3 -14 6 -6 3 7 2 16 -1 19 -3 4 -6 -2 -5 -13z"/>
<path d="M2820 1451 c-8 -9 -15 -29 -16 -46 0 -16 -4 -39 -8 -50 -6 -16 -6
-17 3 -5 7 10 11 11 11 3 0 -9 21 -13 69 -13 l70 0 -3 28 c-2 15 -4 37 -5 50
-1 14 -7 22 -18 22 -15 0 -16 2 -3 10 12 8 8 10 -15 11 -16 1 -39 2 -50 3 -11
1 -27 -5 -35 -13z"/>
<path d="M3337 1411 c3 -13 1 -21 -6 -21 -7 0 -9 -5 -5 -11 4 -8 9 -7 15 2 4
7 11 10 15 6 4 -3 2 -12 -4 -20 -8 -10 -6 -13 10 -14 11 -1 28 -9 37 -17 13
-12 39 -16 102 -15 56 0 77 3 64 9 -18 8 -17 9 6 9 15 1 32 -6 39 -14 11 -13
5 -15 -41 -16 -117 -3 -174 0 -177 10 -7 20 -20 11 -15 -9 5 -20 13 -21 129
-19 109 1 124 3 124 18 0 29 -22 41 -80 43 -37 1 -44 3 -22 5 33 4 33 5 17 23
-10 11 -22 17 -27 14 -14 -9 -60 5 -53 16 10 16 -42 11 -59 -5 -19 -20 -25
-19 -52 6 l-23 21 6 -21z m90 -57 c-3 -3 -12 -4 -19 -1 -8 3 -5 6 6 6 11 1 17
-2 13 -5z m90 -20 c-3 -3 -12 -4 -19 -1 -8 3 -5 6 6 6 11 1 17 -2 13 -5z"/>
<path d="M2971 1364 c0 -11 3 -14 6 -6 3 7 2 16 -1 19 -3 4 -6 -2 -5 -13z"/>
<path d="M2838 1323 c23 -2 61 -2 85 0 23 2 4 4 -43 4 -47 0 -66 -2 -42 -4z"/>
<path d="M2800 1300 c0 -6 37 -10 90 -10 53 0 90 4 90 10 0 6 -37 10 -90 10
-53 0 -90 -4 -90 -10z"/>
<path d="M1540 1016 c0 -2 8 -10 18 -17 15 -13 16 -12 3 4 -13 16 -21 21 -21
13z"/>
</g>
</svg>
